# xmcd CD database file
#
# Track frame offsets:
#	183
#	88135
#	134435
#	185493
#	234595
#	289675
#
# Disc length: 4228 seconds
#
# Revision: 17
# Processed by: cddbd v1.5.2PL0 Copyright (c) Steve Scherf et al.
# Submitted via: CDex 1.82
#
DISCID=53108206
DTITLE=Genesis - The Way We Walk Volume Two: The Longs
DYEAR=1993
DGENRE=Progressive Rock
TTITLE0=Old Medley (Dance On A Vulcano, Lamb Lies Down On Broadway, The Musical Box, Firth Of Fifth, I Knoe What I Like...)
TTITLE1=Driving The Last Spike
TTITLE2=Domino (Part 1 - In the Glow Of The Night, Part 2 - The Last Domino)  
TTITLE3=Fading Lights
TTITLE4=Home By The Sea, Second Home By The Sea
TTITLE5=Drum Duet
EXTD=YEAR: 1993
EXTT0=Dance On A Volcano-Lamb Lies Down On Broadway-The Musical Box-Firth Of Fifth-I Know What I Like...
EXTT1=
EXTT2=Part I - In The Glow Of The Night\nPart II - The Last Domino\n
EXTT3=
EXTT4=
EXTT5=
PLAYORDER=
